<?xml version="1.0" standalone="no"?>
<!DOCTYPE svg PUBLIC "-//W3C//DTD SVG 20010904//EN"
 "http://www.w3.org/TR/2001/REC-SVG-20010904/DTD/svg10.dtd">
<svg version="1.0" xmlns="http://www.w3.org/2000/svg"
 width="870.000000pt" height="870.000000pt" viewBox="0 0 870.000000 870.000000"
 preserveAspectRatio="xMidYMid meet">
<metadata>
Created by potrace 1.11, written by Peter Selinger 2001-2013
</metadata>
<g transform="translate(0.000000,870.000000) scale(0.100000,-0.100000)"
fill="#000000" stroke="none">
<path d="M5245 7712 c-305 -1 -432 -6 -440 -14 -7 -8 -5 -9 8 -5 12 5 17 1 17
-13 0 -11 -6 -20 -12 -20 -10 0 -10 -2 -1 -8 8 -5 11 -710 11 -2824 0 -1550
-3 -2829 -5 -2842 -3 -14 -9 -24 -12 -21 -4 2 -8 -2 -8 -9 0 -8 6 -12 12 -9 7
2 19 -2 26 -10 8 -7 20 -12 28 -9 9 3 4 9 -15 18 -29 14 -29 14 14 9 29 -3 41
-1 36 6 -4 8 7 9 35 5 26 -3 40 -2 36 4 -3 6 0 10 9 10 8 0 22 3 30 6 12 5 15
2 10 -10 -3 -9 -10 -13 -15 -10 -5 3 -7 -1 -4 -8 3 -7 17 -14 31 -14 23 -2 24
-1 7 13 -10 8 -13 12 -8 9 6 -2 17 0 25 6 12 8 12 9 -2 4 -10 -3 -18 -1 -18 4
0 6 6 11 13 12 6 0 17 2 22 2 6 1 16 5 23 9 7 5 12 3 12 -5 0 -10 3 -9 10 2 5
8 12 11 16 7 4 -4 13 -2 21 4 7 6 22 9 33 6 11 -3 20 0 20 6 0 8 3 8 8 -1 7
-9 15 -10 33 -2 l24 11 -24 -5 c-14 -3 -20 -1 -15 4 5 5 26 12 47 15 31 6 37
4 37 -10 0 -13 -3 -15 -13 -7 -10 8 -16 6 -25 -9 -7 -10 -8 -19 -3 -19 5 0 12
6 14 13 4 9 6 8 6 -2 2 -22 31 8 31 32 0 11 3 18 6 14 4 -3 22 0 40 8 28 12
34 12 34 1 0 -8 -6 -14 -12 -13 -33 1 -44 -5 -45 -23 -1 -11 3 -20 9 -20 6 0
8 3 5 7 -11 10 13 32 29 26 10 -4 17 2 21 15 6 25 27 33 84 34 25 0 36 4 28 8
-12 8 86 43 121 43 8 0 21 6 28 14 8 7 25 11 38 9 13 -3 22 -1 19 4 -3 5 -1
11 3 14 5 3 8 15 6 28 -1 13 -3 1256 -3 2763 l-1 2740 -32 0 c-18 0 -226 -1
-463 -3z"/>
<path d="M4583 5893 c-18 -2 -33 -8 -33 -12 0 -5 12 -7 27 -5 38 4 57 -13 38
-33 -8 -8 -15 -20 -15 -26 0 -14 34 33 36 50 1 7 -3 11 -9 10 -7 -1 -11 4 -9
11 1 6 1 11 0 10 -2 0 -18 -3 -35 -5z"/>
<path d="M3615 5880 c-3 -6 1 -7 9 -4 18 7 21 14 7 14 -6 0 -13 -4 -16 -10z"/>
<path d="M3660 5877 c0 -8 3 -17 7 -20 4 -4 7 -43 7 -86 1 -65 -2 -78 -14 -74
-13 4 -13 4 0 -6 22 -15 23 -597 1 -624 -12 -15 -12 -18 -2 -15 19 4 22 -212
4 -219 -7 -3 -13 -10 -13 -15 0 -7 5 -7 13 0 11 9 13 2 13 -37 -1 -42 -3 -48
-16 -38 -13 10 -13 9 0 -8 19 -25 19 -47 1 -69 -12 -14 -12 -17 -1 -14 20 4
20 -43 1 -65 -13 -15 -13 -18 -1 -15 12 2 14 -28 14 -187 -1 -153 -3 -189 -14
-187 -11 3 -11 0 0 -13 18 -22 19 -66 2 -73 -11 -4 -11 -6 -1 -13 18 -11 19
-60 2 -66 -12 -5 -12 -7 -2 -14 7 -4 14 -21 14 -38 0 -16 -2 -28 -6 -25 -4 2
-11 0 -14 -6 -4 -6 -1 -9 6 -8 19 4 19 -223 1 -230 -11 -4 -11 -6 -1 -13 7 -4
14 -21 15 -38 1 -17 -1 -29 -6 -26 -5 3 -12 0 -16 -6 -4 -8 -3 -9 4 -5 14 8
13 10 16 -73 1 -46 -2 -65 -12 -68 -11 -5 -11 -7 0 -14 9 -6 13 -39 13 -122 0
-97 -2 -114 -15 -110 -12 4 -12 3 -2 -5 15 -10 27 -86 12 -77 -5 3 -12 0 -16
-6 -4 -8 -3 -9 4 -5 7 4 12 4 13 -1 6 -52 5 -63 -10 -64 -14 0 -14 -1 -1 -7
21 -10 22 -82 0 -75 -13 4 -13 3 0 -5 21 -16 21 -152 0 -153 -13 0 -13 -1 0
-7 9 -4 15 -21 16 -39 0 -17 -3 -30 -7 -27 -4 2 -11 0 -14 -6 -4 -6 -1 -9 6
-8 9 2 13 -19 13 -78 1 -68 -1 -81 -14 -77 -13 4 -13 4 0 -5 21 -16 22 -161 0
-155 -13 4 -13 3 -1 -5 11 -8 15 -32 16 -86 0 -41 -2 -71 -6 -65 -4 7 -9 8
-13 1 -3 -5 0 -12 7 -15 16 -6 15 -120 -1 -140 -10 -12 -10 -16 0 -20 18 -6
17 -143 -1 -139 -7 1 -10 -2 -6 -8 3 -6 9 -8 13 -6 4 2 7 -17 7 -42 0 -45 -2
-47 -28 -45 -15 1 -27 -2 -27 -6 0 -9 11 -10 98 -12 35 0 66 1 68 4 3 3 18 2
32 -2 15 -4 39 -4 54 0 17 4 30 3 34 -3 4 -7 10 -5 15 5 5 9 17 13 29 10 11
-3 18 -8 15 -12 -8 -13 33 -5 51 10 16 12 17 12 12 -3 -6 -14 -4 -15 20 -2 32
17 76 19 67 3 -5 -7 -1 -8 11 -1 36 18 84 30 89 22 2 -4 22 -4 44 0 22 4 45 4
52 -1 7 -4 21 -3 32 3 10 5 30 7 43 4 15 -4 26 -2 29 6 4 9 26 13 68 12 35 0
71 5 83 13 11 7 25 10 29 6 5 -5 4 -1 -3 8 -9 12 -11 462 -9 1960 1 1069 6
1953 10 1964 7 16 7 17 -2 5 -8 -12 -11 -12 -11 -1 0 8 -6 11 -16 7 -9 -4 -24
-1 -32 6 -9 7 -13 8 -10 3 8 -14 -750 -14 -760 0 -9 12 -42 16 -42 5 0 -5 10
-11 23 -13 19 -4 18 -4 -5 -6 -19 -1 -28 4 -28 14 0 8 -5 15 -11 15 -6 0 -9
-6 -6 -13 3 -8 -1 -14 -8 -14 -7 0 -11 6 -8 14 3 7 0 13 -6 13 -6 0 -11 -6
-11 -13z"/>
<path d="M3627 5853 c-13 -12 -7 -25 6 -14 8 6 18 7 22 3 5 -4 5 -1 1 6 -8 13
-19 16 -29 5z"/>
<path d="M2775 5571 c-3 -6 -10 -9 -15 -6 -10 6 -35 -34 -26 -43 3 -3 6 0 6 6
0 7 6 12 14 12 16 0 42 28 33 36 -3 3 -8 0 -12 -5z"/>
<path d="M2802 5564 c-2 -23 -25 -48 -35 -38 -3 3 -8 -4 -12 -15 -7 -23 -57
-41 -63 -23 -2 6 -10 8 -18 5 -12 -4 -12 -8 -4 -13 10 -6 10 -12 0 -26 -10
-16 -11 -16 -6 -1 3 9 0 17 -6 17 -6 0 -8 -11 -4 -31 5 -24 3 -30 -8 -26 -9 4
-19 -5 -26 -24 -13 -31 -24 -36 -36 -17 -4 6 -3 8 4 4 6 -3 14 -1 17 5 5 7 1
10 -10 7 -10 -1 -19 -10 -21 -20 -3 -22 -64 -89 -75 -82 -5 3 -9 -2 -9 -10 0
-14 -6 -18 -26 -15 -4 0 -13 -12 -21 -28 -15 -29 -87 -86 -97 -76 -9 10 -7 25
3 19 5 -3 20 5 34 18 14 13 31 26 38 28 7 2 13 13 15 24 3 19 3 19 -12 0 -8
-11 -14 -16 -14 -11 0 5 -7 0 -16 -11 -8 -10 -13 -14 -10 -7 4 6 1 15 -6 19
-8 5 -6 10 8 16 18 8 18 8 0 5 -12 -1 -20 -12 -23 -27 -3 -22 -46 -70 -63 -70
-3 0 -12 6 -19 13 -11 10 -13 9 -8 -5 3 -10 2 -20 -4 -23 -5 -4 -7 -10 -4 -15
3 -5 1 -11 -5 -15 -5 -3 -10 0 -10 7 0 10 -3 9 -9 -1 -7 -11 -3 -18 12 -26 24
-13 50 -8 41 6 -3 5 -9 7 -14 4 -4 -3 -7 3 -6 13 2 28 36 45 36 18 0 -8 6 -17
13 -19 7 -3 4 -6 -6 -6 -10 -1 -16 -5 -13 -9 3 -5 -9 -19 -26 -33 -16 -13 -37
-30 -44 -38 -21 -19 -78 -30 -99 -18 -15 8 -17 7 -12 -7 6 -14 3 -16 -16 -11
-19 5 -20 4 -4 -5 9 -6 18 -21 18 -33 1 -20 2 -20 6 -2 3 11 10 23 17 27 17
11 48 10 41 -2 -3 -5 -16 -10 -28 -10 -13 0 -17 -3 -11 -8 8 -5 4 -13 -12 -25
-13 -10 -24 -14 -24 -8 0 5 -13 9 -29 9 -25 -1 -28 -3 -15 -15 20 -20 17 -26
-5 -13 -24 12 -34 13 -27 1 4 -5 1 -11 -6 -13 -7 -3 -5 -7 6 -11 10 -4 15 -3
11 3 -3 6 -1 10 4 10 6 0 11 -5 11 -11 0 -5 5 -7 10 -4 6 3 10 2 10 -3 0 -15
-37 -21 -51 -8 -9 8 -10 8 -5 -1 8 -14 -23 -33 -41 -26 -7 3 -13 -1 -13 -9 0
-10 -3 -9 -10 2 -5 8 -10 10 -10 4 0 -5 7 -19 15 -30 8 -10 15 -14 14 -9 -4
28 1 39 13 27 8 -8 17 -8 32 -1 18 9 19 8 5 -3 -8 -7 -18 -21 -22 -30 -4 -11
-14 -16 -27 -13 -16 3 -20 0 -16 -10 3 -9 -1 -15 -10 -15 -8 0 -13 3 -11 8 3
4 -7 8 -21 9 -25 1 -26 0 -7 -13 10 -8 25 -14 33 -14 12 0 12 -3 2 -15 -6 -8
-17 -13 -23 -12 -6 1 -11 -5 -12 -13 0 -9 -8 -14 -19 -12 -13 2 -17 -1 -13
-11 6 -15 -10 -37 -26 -37 -5 0 -4 7 3 15 18 21 -3 46 -22 27 -15 -15 -48 -16
-48 -2 0 6 -4 10 -10 10 -5 0 -7 -7 -4 -15 4 -8 12 -15 19 -15 8 0 17 -4 20
-10 4 -6 -1 -7 -12 -3 -16 6 -17 5 -3 -12 12 -15 12 -17 1 -10 -11 6 -13 4 -8
-7 8 -22 -3 -30 -21 -15 -19 15 -21 14 -38 -15 -26 -44 -27 -50 -13 -59 12 -7
7 -13 -11 -11 -3 0 -7 -8 -7 -19 -1 -11 2 -17 8 -14 14 9 11 -5 -5 -20 -7 -8
-16 -11 -20 -8 -3 4 -6 1 -6 -6 0 -12 -24 -41 -34 -41 -3 0 -3 9 -1 20 2 11 0
22 -6 25 -5 4 -9 0 -10 -7 0 -7 -2 -26 -4 -43 -3 -21 -2 -26 5 -15 5 8 10 10
10 4 0 -17 -27 -37 -34 -25 -8 13 -47 1 -40 -13 3 -6 -1 -3 -8 6 -13 15 -14
13 -15 -18 -1 -19 3 -37 9 -40 13 -8 -41 -64 -61 -64 -10 1 -5 7 12 16 15 8
27 19 27 24 0 16 -21 23 -33 10 -10 -10 -8 -11 8 -6 19 7 19 6 3 -11 -17 -16
-19 -16 -33 2 -16 20 -16 20 -6 -1 7 -15 7 -24 -1 -32 -9 -9 -7 -12 8 -12 14
0 16 -2 5 -9 -7 -5 -10 -14 -7 -20 11 -18 -5 -13 -21 7 -13 15 -14 15 -8 -8 5
-24 5 -24 -7 -5 -17 26 -45 28 -51 4 -3 -11 -1 -17 4 -13 8 4 14 -17 10 -38 0
-5 4 -8 10 -8 5 0 7 -5 3 -11 -5 -8 -9 -7 -15 4 -6 9 -17 13 -29 10 -16 -4
-19 -11 -14 -27 5 -17 4 -19 -7 -8 -16 15 -29 16 -29 1 0 -5 5 -7 10 -4 6 3
10 -3 10 -14 0 -23 -16 -29 -22 -9 -3 9 -6 9 -12 0 -4 -7 -2 -12 3 -12 6 0 11
-8 11 -17 0 -14 4 -12 17 7 9 14 24 30 32 36 8 6 11 16 7 22 -4 7 -3 12 2 12
6 0 13 -7 16 -16 8 -21 8 -26 -3 -20 -5 3 -14 -1 -21 -9 -7 -8 -10 -15 -6 -15
5 0 -12 -23 -39 -54 -6 -6 -21 -28 -34 -48 -12 -21 -24 -38 -25 -38 -1 0 -2 9
-2 19 0 11 4 17 8 15 4 -3 8 0 8 5 0 6 -9 11 -21 11 -11 0 -17 -4 -14 -10 3
-6 -1 -7 -9 -4 -12 5 -16 0 -16 -17 0 -17 3 -20 9 -11 6 10 10 8 14 -8 4 -17
2 -21 -11 -18 -10 3 -23 -1 -30 -8 -17 -18 -15 -29 3 -14 8 6 20 10 27 7 8 -3
6 -6 -5 -6 -10 -1 -15 -6 -12 -11 4 -6 1 -9 -6 -8 -6 2 -14 -3 -17 -11 -3 -9
0 -11 9 -6 12 7 12 5 1 -6 -11 -12 -14 -12 -21 0 -5 7 -7 23 -4 35 4 19 3 19
-10 -3 -11 -18 -16 -20 -20 -10 -3 8 -6 5 -6 -9 -1 -13 3 -21 8 -17 5 3 12 1
16 -5 3 -5 -1 -10 -10 -10 -9 0 -13 -5 -10 -11 4 -6 13 -8 21 -5 8 3 11 0 7
-9 -3 -8 -9 -12 -14 -9 -5 3 -9 -1 -9 -8 0 -18 -69 -127 -70 -110 0 17 -20 15
-20 -3 0 -8 -4 -15 -10 -15 -5 0 -10 -8 -10 -17 1 -16 2 -16 15 1 8 11 18 17
21 13 4 -4 -5 -16 -20 -28 -14 -11 -24 -24 -22 -28 3 -4 -8 -24 -25 -44 -16
-20 -30 -39 -29 -42 1 -21 -3 -27 -25 -35 -21 -8 -24 -13 -16 -29 11 -20 5
-31 -15 -31 -8 0 -11 10 -8 28 3 20 2 23 -6 12 -5 -8 -7 -29 -4 -46 8 -43 -39
-134 -70 -134 -12 0 -16 -3 -10 -8 13 -8 14 -42 2 -42 -5 0 -6 -4 -3 -10 10
-16 -14 -50 -30 -44 -9 4 -15 0 -15 -10 0 -9 -4 -16 -10 -16 -5 0 -7 -7 -4
-15 4 -8 10 -13 14 -10 5 3 3 -8 -3 -25 -6 -16 -14 -25 -18 -19 -3 6 -9 -1
-11 -15 -3 -14 -1 -26 5 -26 6 0 3 -8 -6 -18 -10 -10 -17 -25 -17 -34 0 -24
-21 -78 -31 -78 -5 0 -8 3 -6 8 1 4 -2 8 -8 10 -5 1 -10 -2 -10 -7 0 -5 -3
-13 -7 -17 -12 -12 -9 -24 5 -24 16 0 17 -41 2 -52 -6 -5 -5 -8 3 -8 10 0 9
-5 -2 -22 -7 -13 -12 -31 -11 -41 2 -11 1 -16 -2 -13 -3 3 -14 -5 -25 -17
l-19 -22 6 22 c3 12 1 24 -5 28 -6 4 -10 -4 -10 -17 0 -13 -5 -29 -12 -36 -8
-8 -8 -15 1 -26 9 -10 9 -20 2 -34 -8 -15 -9 -42 -1 -62 1 -3 2 -8 1 -12 0 -5
4 -8 9 -8 6 0 10 5 10 10 0 6 5 10 10 10 7 0 7 -7 0 -20 -6 -11 -8 -25 -5 -30
3 -5 1 -11 -5 -15 -5 -3 -10 -12 -10 -18 0 -7 4 -6 10 3 19 29 10 -9 -10 -45
-24 -43 -24 -46 -5 -39 8 4 15 1 15 -5 0 -6 -5 -11 -11 -11 -8 0 -8 -4 -1 -13
6 -7 9 -32 8 -55 -2 -23 1 -42 7 -42 5 0 4 -7 -3 -15 -7 -8 -17 -12 -23 -8 -6
3 -7 1 -3 -6 4 -6 2 -18 -4 -26 -10 -12 -9 -15 4 -15 10 0 14 -4 11 -10 -3 -5
-1 -10 5 -10 8 0 10 9 6 24 -3 14 -2 27 3 30 5 3 8 -11 8 -32 0 -21 3 -45 8
-53 11 -17 17 -49 9 -49 -3 0 -12 16 -20 35 -13 33 -34 48 -34 25 0 -5 5 -10
11 -10 5 0 7 -5 3 -12 -4 -6 -9 -27 -10 -47 -1 -20 1 -29 6 -21 6 10 9 10 12
-1 3 -8 3 -1 0 15 -3 19 -1 26 7 22 6 -4 11 -14 11 -22 0 -8 7 -14 15 -14 9 0
12 -6 9 -15 -4 -8 -1 -15 6 -15 7 0 10 -7 7 -15 -4 -8 -3 -17 2 -19 9 -6 7
-73 -3 -83 -13 -14 -5 -25 9 -13 9 7 14 19 11 26 -3 7 0 16 5 20 7 4 9 -8 7
-32 -3 -30 -8 -38 -21 -36 -11 2 -15 -2 -11 -13 7 -16 24 -21 24 -6 0 5 7 11
15 15 19 7 15 -15 -5 -31 -13 -10 -12 -12 8 -10 12 1 22 6 22 12 0 5 4 3 9 -5
6 -8 7 -18 5 -22 -3 -4 0 -8 7 -8 10 0 10 -3 1 -12 -7 -7 -8 -17 -2 -29 7 -12
6 -20 0 -24 -6 -4 -8 -11 -4 -16 4 -6 11 -6 19 1 14 12 9 40 -9 52 -7 5 -7 8
2 8 7 0 15 -8 19 -17 3 -10 13 -26 21 -36 8 -9 12 -20 8 -24 -4 -4 -11 -1 -16
7 -8 12 -10 10 -10 -7 0 -17 4 -21 17 -16 17 6 17 5 0 -14 -9 -11 -17 -26 -17
-34 0 -12 2 -11 10 1 7 10 12 12 18 4 4 -6 17 -17 30 -23 22 -12 23 -11 12 8
-16 30 5 26 25 -5 9 -15 13 -24 7 -20 -10 6 -27 -42 -17 -52 3 -3 5 2 5 10 0
22 22 28 44 12 17 -12 17 -16 5 -31 -13 -17 -12 -17 4 -4 16 13 18 12 13 -11
-5 -32 8 -57 18 -32 4 10 2 21 -5 24 -7 5 -8 10 -1 14 14 8 35 -20 26 -35 -5
-8 -3 -9 5 -4 9 5 12 0 9 -16 -2 -15 2 -23 9 -22 7 2 10 -3 7 -11 -3 -8 0 -17
6 -21 9 -6 9 -10 -1 -16 -8 -5 -9 -9 -3 -9 6 0 17 7 24 15 10 12 10 15 0 15
-7 0 -10 7 -6 15 3 9 -1 18 -9 21 -8 4 -15 12 -15 20 0 20 40 -15 41 -36 0
-10 3 -9 9 5 8 18 9 18 9 2 1 -10 -6 -29 -15 -42 -9 -14 -12 -25 -7 -25 14 0
44 35 37 43 -7 7 24 2 57 -8 10 -4 19 -15 19 -25 0 -10 5 -22 11 -26 8 -4 9 1
5 17 -3 13 -3 18 0 11 3 -6 10 -9 16 -6 6 4 5 -2 -1 -15 -7 -11 -16 -21 -20
-21 -5 0 -11 -7 -14 -14 -4 -10 -1 -13 9 -9 7 3 14 0 14 -6 0 -6 5 -11 11 -11
8 0 8 4 0 14 -9 11 -6 17 14 30 14 9 25 12 25 7 0 -5 8 -7 19 -4 22 6 37 -12
19 -23 -6 -4 -14 -2 -16 4 -4 13 -32 5 -32 -10 0 -5 5 -6 11 -2 6 3 14 1 18
-5 5 -7 14 -5 28 8 18 17 23 18 39 6 18 -13 18 -14 -2 -9 -12 3 -25 1 -28 -5
-5 -7 10 -9 44 -7 27 2 53 0 56 -5 3 -5 11 -6 17 -3 8 5 8 3 0 -7 -22 -22 -15
-44 12 -44 14 0 25 4 25 9 0 4 7 6 15 2 8 -3 15 -1 15 4 0 6 5 10 11 10 5 0 8
-3 5 -8 -2 -4 3 -16 11 -27 15 -20 15 -20 10 3 -4 15 -1 22 10 22 9 0 13 -6
10 -15 -4 -8 -2 -17 3 -20 6 -4 10 1 10 10 0 15 1 15 16 0 12 -12 19 -13 30
-4 8 7 14 7 14 2 0 -6 8 -10 18 -10 53 0 56 -2 31 -23 -21 -17 -22 -19 -6 -20
10 0 15 5 12 10 -8 13 11 13 38 -1 l22 -12 -20 24 c-18 22 -18 22 -1 9 11 -8
21 -14 23 -12 12 8 43 -1 43 -13 0 -8 -5 -15 -11 -15 -5 0 -7 5 -4 10 3 5 2
10 -4 10 -5 0 -9 -9 -8 -20 2 -25 22 -25 54 0 14 11 33 20 42 20 14 -1 14 -2
-1 -11 -29 -16 -22 -38 11 -36 22 2 27 5 19 15 -8 9 -7 11 7 6 14 -6 16 -4 10
6 -6 9 -4 11 6 4 8 -4 27 -7 43 -5 15 1 26 -1 23 -6 -3 -4 9 -9 26 -10 58 -3
132 -10 203 -18 38 -5 72 -8 77 -7 4 1 7 -3 7 -9 0 -5 5 -7 10 -4 6 3 10 1 10
-4 0 -6 5 -11 11 -11 5 0 8 4 4 10 -6 10 162 6 172 -4 3 -3 0 -12 -6 -20 -8
-9 -8 -16 -2 -20 11 -7 34 28 24 38 -3 3 2 6 12 6 14 0 15 -3 5 -15 -11 -13
-8 -15 16 -14 16 0 23 3 17 6 -7 2 -13 8 -13 11 0 10 313 12 325 3 5 -5 26
-11 45 -14 l35 -6 -30 14 c-27 13 -20 14 87 12 119 -3 141 -8 120 -29 -9 -9
-12 -8 -12 6 0 10 -5 14 -11 10 -13 -8 3 -27 27 -30 9 -1 13 0 10 3 -3 4 2 15
11 25 16 18 16 18 0 12 -10 -3 -17 -1 -17 5 0 6 19 10 48 10 60 -2 202 8 222
15 35 12 233 16 246 5 11 -9 14 -8 14 5 0 9 8 16 21 16 11 0 18 -4 15 -8 -3
-5 11 -9 32 -10 23 -1 32 2 24 7 -10 6 -9 10 7 14 12 3 21 1 21 -4 0 -5 5 -9
11 -9 6 0 8 7 5 16 -4 10 -1 14 6 11 7 -2 12 -12 12 -21 -1 -9 5 -16 13 -16
10 0 12 6 8 23 -6 18 -5 20 6 10 16 -15 53 -17 44 -3 -4 6 -10 8 -15 5 -5 -3
-12 -1 -15 5 -4 7 7 10 32 9 21 -1 48 1 61 5 29 10 29 -2 0 -13 -21 -8 -20 -9
9 -9 22 1 30 5 26 14 -3 9 2 14 12 14 12 0 15 -6 10 -22 -4 -15 -3 -19 3 -10
5 7 17 10 28 6 18 -6 18 -6 -1 9 -16 13 -17 17 -5 18 8 1 18 1 23 0 4 0 7 3 7
7 0 4 8 8 18 9 68 5 111 12 121 17 6 4 14 0 17 -8 3 -9 11 -13 16 -10 6 4 5
10 -3 15 -11 7 -11 9 2 9 8 0 20 -5 26 -11 8 -8 13 -7 18 2 5 8 4 10 -3 5 -7
-4 -12 -2 -12 3 0 6 9 11 19 11 11 0 27 3 37 7 14 5 16 3 10 -12 -4 -11 -4
-16 0 -12 4 4 12 3 18 -2 7 -6 16 -4 24 5 11 12 10 14 -5 14 -13 0 -14 3 -5
12 8 8 15 8 28 -3 15 -12 17 -12 9 0 -6 11 -4 13 8 8 9 -3 19 -2 23 4 3 6 13
8 21 5 9 -4 22 -1 29 5 8 6 20 9 29 6 8 -4 17 -2 20 3 3 4 13 7 23 5 9 -1 23
3 31 9 11 8 15 8 18 -1 4 -10 9 -10 25 1 14 10 28 12 44 6 19 -8 22 -6 17 7
-4 10 -2 14 4 10 6 -4 25 -2 43 3 23 7 38 6 47 -2 7 -6 16 -8 20 -4 3 3 1 6
-6 6 -7 0 -9 5 -5 11 4 7 19 -2 40 -22 l34 -33 0 27 c0 32 6 34 28 9 10 -10
13 -11 7 -3 -7 10 -6 15 2 18 7 2 9 11 7 18 -6 15 33 30 71 27 10 0 25 4 32
10 7 6 13 7 13 2 0 -5 5 -2 11 6 8 12 10 10 5 -10 -5 -24 -5 -24 19 5 13 17
24 24 25 18 0 -7 7 -13 16 -13 14 0 15 -2 3 -17 -12 -14 -12 -16 1 -8 8 5 30
9 50 8 36 -1 58 16 38 29 -7 3 -18 -1 -26 -10 -7 -9 -11 -12 -8 -5 4 7 -1 9
-16 5 -20 -5 -21 -4 -8 9 19 19 58 30 66 18 3 -5 14 -9 24 -9 10 0 20 -5 22
-11 2 -7 11 -7 28 0 22 8 22 10 5 11 -11 0 -29 8 -40 16 -19 15 -18 15 15 12
19 -1 39 -7 43 -13 5 -5 5 0 2 13 -7 23 12 28 27 7 4 -6 13 -2 22 10 10 14 17
17 27 9 21 -16 58 -23 65 -13 3 6 12 5 22 -3 14 -12 14 -10 3 10 -14 27 -10
34 21 37 13 1 39 9 58 18 19 8 42 13 52 12 10 -2 18 1 18 6 0 6 4 8 9 4 5 -3
13 -1 16 5 5 8 11 8 19 1 7 -6 16 -8 19 -4 4 3 7 2 7 -4 0 -5 7 -10 15 -10 8
0 15 4 15 9 0 4 -7 8 -15 8 -8 0 -15 4 -15 8 0 5 7 9 15 10 8 1 22 3 30 4 8 1
15 4 15 8 0 9 47 6 56 -3 5 -4 2 -12 -6 -17 -12 -8 -13 -11 -2 -22 8 -7 12 -8
11 -3 -1 6 5 26 13 45 10 21 17 28 17 18 1 -10 8 -18 17 -18 10 0 13 6 10 18
-6 19 -6 18 73 23 22 2 28 6 23 18 -5 14 -4 14 11 2 15 -12 19 -12 31 5 8 10
18 16 21 12 4 -4 0 -14 -9 -23 -20 -21 -21 -32 -1 -15 10 9 15 9 15 1 0 -6 5
-11 11 -11 5 0 7 5 4 11 -9 13 27 8 38 -6 5 -6 7 -4 4 5 -2 8 -9 16 -15 16 -7
1 -16 2 -22 3 -5 0 -10 6 -10 12 0 6 8 8 19 4 12 -3 21 0 25 10 3 8 14 15 24
15 10 0 22 4 28 9 5 5 23 11 39 12 17 2 38 10 49 19 10 8 21 14 25 13 3 -1 16
0 29 4 16 4 28 -2 43 -21 19 -25 39 -27 39 -5 0 6 -4 8 -9 4 -6 -3 -15 3 -21
14 -12 23 2 29 67 34 18 1 33 6 33 10 0 9 56 30 67 25 4 -1 7 -6 6 -10 -2 -5
6 -8 17 -8 27 0 36 3 33 12 -2 5 4 8 12 8 8 0 15 -5 15 -11 0 -5 5 -7 12 -3 7
5 5 11 -8 21 -16 12 -17 15 -4 23 9 5 19 5 28 -2 7 -6 12 -7 11 -2 -4 23 2 26
20 10 12 -11 21 -14 26 -7 3 6 -1 11 -11 11 -23 0 -16 6 30 25 21 9 35 11 31
6 -3 -6 -1 -11 4 -11 6 0 11 6 11 13 0 8 4 7 10 -3 8 -13 10 -12 10 3 0 9 3
17 8 18 4 0 31 2 60 4 50 4 52 3 52 -21 0 -14 4 -23 9 -20 5 3 7 16 4 29 -4
18 -3 19 6 7 9 -12 10 -7 6 19 -5 27 -3 32 10 28 8 -4 15 -1 15 5 0 6 6 5 17
-3 15 -12 16 -12 11 3 -5 12 -1 16 17 13 14 -1 22 2 18 8 -3 5 0 8 8 5 8 -3
14 -11 14 -18 0 -7 6 -15 13 -17 6 -3 12 0 12 7 0 6 -4 8 -10 5 -6 -3 -7 1 -4
10 6 14 8 14 19 -1 7 -10 23 -19 36 -21 18 -2 20 -1 9 6 -8 5 -18 7 -24 4 -5
-3 -6 -1 -2 5 4 7 3 12 -2 12 -6 0 -13 8 -16 17 -4 10 -4 14 0 10 4 -4 13 -2
19 3 9 8 14 6 19 -5 4 -10 2 -14 -5 -9 -7 4 -10 2 -8 -5 6 -18 24 -9 23 12 0
9 5 17 12 17 7 0 15 6 17 12 4 10 6 9 6 -1 1 -11 4 -11 16 -1 8 7 15 9 15 4 0
-4 7 1 15 12 14 19 14 19 15 -1 1 -18 2 -18 10 2 10 23 30 32 30 12 0 -5 -4
-7 -10 -4 -6 3 -7 -1 -4 -9 3 -9 16 -16 28 -15 18 0 19 1 3 7 -17 7 -16 9 3
30 26 28 30 28 27 0 -1 -14 4 -23 16 -26 9 -2 17 2 17 8 0 6 -5 8 -12 4 -7 -5
-1 7 13 26 14 19 37 37 50 41 13 4 55 19 94 33 83 31 92 32 74 8 -13 -15 -12
-16 3 -3 10 7 16 17 13 21 -3 5 9 13 27 19 38 14 58 14 38 1 -12 -8 -11 -10 6
-10 15 0 21 6 20 17 0 10 4 18 9 18 6 0 16 4 24 9 9 6 12 5 8 -1 -9 -14 37
-33 54 -22 10 6 6 9 -16 10 -16 0 -24 3 -17 6 6 2 10 9 6 14 -8 14 4 11 33 -8
15 -10 24 -12 20 -5 -5 7 -3 12 5 12 9 0 10 2 2 8 -9 5 -8 11 2 20 12 11 14
10 15 -5 0 -13 3 -11 10 7 8 18 12 21 18 11 7 -11 10 -11 17 2 5 8 26 22 48
31 47 19 50 20 43 3 -3 -8 4 -14 16 -15 12 0 17 2 12 6 -29 20 10 52 54 43 7
-1 10 2 7 7 -3 6 1 13 10 16 24 9 31 7 14 -4 -9 -6 -10 -10 -3 -10 6 0 15 5
18 10 8 13 35 13 35 1 0 -5 -8 -12 -17 -14 -10 -3 -6 -4 9 -4 15 1 24 5 21 10
-3 5 5 6 18 2 23 -7 23 -7 4 8 -19 14 -18 15 10 11 l30 -5 -24 14 c-14 8 -19
17 -13 21 6 3 12 1 14 -5 2 -6 14 -8 32 -3 15 3 23 10 17 13 -6 4 -2 12 10 20
12 7 18 8 14 2 -3 -6 -2 -11 4 -11 5 0 12 6 14 13 4 9 6 9 6 0 1 -7 11 -13 24
-13 16 0 18 3 8 9 -11 7 -11 9 0 13 8 3 19 -2 26 -11 10 -13 14 -14 25 -3 11
11 10 12 -7 7 -20 -7 -20 -6 -1 9 16 13 22 13 29 3 6 -8 7 -6 3 6 -3 10 -6 22
-6 25 0 4 -4 1 -9 -7 -5 -7 -26 -15 -47 -17 l-39 -4 50 21 c28 11 55 21 60 22
6 2 16 6 23 10 6 5 16 6 21 2 5 -3 12 -1 16 5 4 6 12 7 18 3 21 -13 37 -12 37
4 0 13 -2 13 -17 2 -14 -12 -16 -12 -11 1 2 8 12 15 20 15 8 0 22 6 30 12 8 7
25 9 38 6 17 -4 21 -3 16 6 -5 8 3 16 23 24 34 13 39 22 16 31 -8 3 -15 1 -15
-4 0 -23 -15 -8 -17 17 -1 20 1 23 9 12 8 -12 9 -12 6 0 -6 21 -28 26 -29 7
-1 -9 -2 -24 -3 -33 -1 -26 -40 -39 -113 -37 -43 1 -62 -2 -60 -10 3 -6 11 -9
18 -8 44 12 60 12 54 2 -4 -6 -12 -9 -18 -7 -7 2 -29 -4 -49 -14 -46 -23 -48
-23 -48 -1 0 11 3 13 8 5 4 -7 13 -9 21 -4 18 11 0 22 -32 19 -19 -2 -23 -5
-16 -15 6 -7 8 -17 5 -22 -6 -10 -86 -35 -139 -45 -16 -3 -36 -11 -45 -18 -13
-11 -14 -11 -8 0 6 10 3 13 -10 10 -11 -2 -18 -9 -17 -15 2 -7 -10 -11 -28
-11 -17 1 -34 -5 -39 -12 -11 -17 -31 -3 -23 17 4 11 3 14 -6 9 -6 -4 -10 -15
-9 -23 2 -9 -3 -18 -11 -21 -8 -3 -11 0 -7 6 4 7 -3 8 -25 2 -18 -5 -37 -7
-43 -4 -6 3 -3 -1 7 -9 17 -14 16 -15 -3 -20 -11 -3 -18 -1 -14 4 3 5 -4 9
-15 9 -12 0 -21 -7 -21 -16 0 -8 -5 -12 -10 -9 -6 4 -7 11 -4 17 5 7 1 9 -9 5
-10 -4 -20 0 -26 11 -5 9 -13 14 -17 10 -4 -4 5 -17 20 -29 32 -25 28 -37 -6
-16 -20 12 -26 12 -48 0 -24 -14 -24 -14 -2 -10 15 4 22 1 19 -6 -2 -7 -14
-14 -28 -15 -13 -2 -29 -8 -36 -14 -6 -5 -29 -10 -50 -11 -21 -1 -42 -6 -46
-12 -5 -6 -7 -3 -4 7 3 9 -1 19 -9 22 -22 9 -26 7 -18 -6 5 -7 3 -8 -7 -2 -8
4 -23 9 -34 11 -13 1 -8 -4 13 -14 17 -9 32 -21 32 -26 0 -5 -7 -4 -15 3 -12
10 -15 10 -15 -4 0 -9 -4 -16 -10 -16 -5 0 -10 7 -10 16 0 8 -5 12 -10 9 -6
-4 -17 -2 -24 4 -11 9 -13 6 -11 -18 2 -24 -2 -31 -22 -36 -13 -3 -28 -3 -33
0 -4 3 -11 -1 -13 -7 -4 -10 -6 -10 -6 -1 -1 15 -28 7 -55 -16 -10 -9 -21 -15
-25 -14 -3 2 -20 -2 -38 -8 -23 -7 -38 -7 -52 0 -24 13 -42 14 -21 1 19 -12 9
-20 -26 -23 -16 -1 -31 -5 -34 -8 -3 -4 -16 -10 -29 -14 -18 -6 -22 -4 -15 6
6 11 5 12 -7 2 -12 -10 -18 -10 -29 0 -10 9 -11 9 -6 -1 5 -8 -2 -16 -19 -22
-29 -11 -49 -5 -39 12 4 7 2 8 -5 4 -6 -4 -9 -11 -6 -16 3 -4 -3 -14 -12 -21
-12 -10 -14 -10 -9 -1 4 7 1 12 -9 12 -9 0 -14 -4 -11 -9 8 -12 -89 -35 -105
-25 -7 4 -9 3 -6 -3 4 -6 -3 -13 -16 -17 -33 -9 -39 -7 -31 6 4 7 -7 2 -24
-11 -33 -23 -45 -19 -14 6 16 13 16 13 -3 5 -11 -4 -27 -8 -35 -7 -8 0 -20 -6
-26 -13 -9 -12 -13 -12 -26 2 -15 14 -17 14 -20 0 -2 -13 -6 -12 -25 5 -27 25
-42 28 -21 4 30 -35 29 -50 -5 -58 -18 -5 -47 -8 -64 -8 -18 0 -31 -3 -29 -6
3 -4 -24 -15 -59 -25 -49 -14 -68 -15 -84 -7 -18 10 -20 9 -14 -5 5 -14 2 -16
-15 -12 -12 4 -22 2 -22 -2 0 -9 -66 -26 -87 -22 -6 2 -14 -2 -18 -8 -3 -5
-17 -10 -31 -10 -14 0 -22 4 -19 10 3 6 1 10 -4 10 -6 0 -11 -6 -11 -14 0 -7
-9 -16 -20 -19 -12 -3 -17 -1 -14 5 3 5 0 9 -7 7 -27 -3 -40 1 -33 12 4 8 0 8
-15 0 -25 -14 -28 -23 -4 -14 10 4 14 2 10 -4 -4 -6 -1 -14 5 -16 7 -3 -6 -4
-30 -1 -32 3 -41 1 -36 -7 4 -7 3 -9 -4 -5 -6 3 -13 2 -17 -4 -3 -5 -11 -10
-16 -10 -6 0 -7 5 -4 10 3 6 -1 10 -9 10 -8 0 -14 6 -12 12 1 7 1 10 -1 6 -3
-4 -4 -10 -3 -13 0 -3 -7 -13 -16 -22 -11 -11 -32 -17 -65 -16 -32 0 -46 -3
-42 -10 4 -6 0 -8 -10 -4 -10 3 -17 2 -17 -4 0 -6 -4 -8 -9 -4 -5 3 -13 0 -16
-6 -4 -5 -13 -8 -21 -5 -7 3 -16 1 -19 -4 -3 -5 -14 -7 -25 -5 -11 2 -22 0
-25 -6 -4 -5 -11 -9 -16 -9 -6 0 -3 7 6 16 9 9 13 19 10 22 -3 4 -10 0 -15 -7
-12 -20 -41 -6 -33 16 4 13 1 12 -15 -5 -11 -13 -25 -21 -30 -18 -5 3 -9 -1
-9 -8 0 -14 27 -10 37 5 3 4 12 0 20 -9 13 -14 12 -15 -2 -9 -9 3 -18 2 -20
-4 -2 -5 -24 -11 -50 -14 -63 -6 -72 -8 -80 -20 -5 -6 -8 -5 -8 2 0 7 -7 10
-15 7 -8 -4 -22 -1 -29 5 -10 8 -16 9 -21 1 -3 -5 -1 -10 4 -10 25 0 8 -16
-19 -18 -16 -1 -30 2 -30 7 0 5 -29 8 -65 7 -36 -1 -66 2 -67 6 -2 4 -10 3
-18 -2 -13 -8 -12 -10 3 -10 10 0 15 -5 12 -10 -4 -6 -11 -7 -17 -4 -7 5 -9 1
-5 -9 3 -9 1 -19 -5 -23 -6 -4 -8 -3 -4 4 3 6 0 17 -8 25 -8 8 -12 18 -8 22 4
5 1 5 -6 1 -10 -6 -11 -11 0 -23 17 -20 -12 -42 -52 -39 -16 1 -31 -3 -34 -8
-2 -7 -11 -6 -26 2 -20 12 -22 12 -17 -1 4 -10 -1 -15 -16 -15 -12 1 -47 -4
-77 -11 -47 -10 -57 -9 -66 4 -12 17 -54 21 -54 5 0 -5 8 -9 18 -7 9 1 18 -2
19 -8 2 -5 -3 -10 -10 -10 -6 0 -18 -4 -26 -9 -10 -6 -12 -5 -7 2 4 7 2 12 -4
12 -6 0 -8 5 -4 11 3 6 0 15 -7 20 -21 13 -33 11 -22 -3 6 -7 13 -21 16 -31 6
-15 3 -17 -14 -12 -11 4 -25 2 -32 -3 -7 -6 -27 -9 -44 -7 -18 1 -33 -1 -33
-6 0 -4 -12 -7 -27 -5 -16 1 -34 -2 -40 -7 -9 -6 -13 -5 -13 4 0 11 -2 11 -10
-1 -5 -8 -10 -11 -10 -6 0 5 -7 3 -15 -4 -12 -10 -15 -10 -15 2 0 8 -7 15 -15
15 -18 0 -20 -13 -2 -20 6 -3 -8 -4 -33 -2 -24 2 -46 8 -48 14 -2 6 -8 8 -13
5 -6 -3 -2 -12 8 -19 16 -13 15 -14 -12 -11 -16 1 -36 -2 -42 -7 -9 -6 -18 -5
-28 3 -8 7 -15 8 -15 3 0 -5 -6 -10 -12 -11 -7 0 -26 -3 -41 -7 -18 -3 -26 -2
-22 5 3 6 0 7 -9 4 -9 -3 -18 0 -21 8 -7 17 -35 20 -35 4 0 -6 -9 0 -19 13
-14 18 -20 21 -26 11 -5 -8 -4 -11 2 -7 6 4 15 -5 22 -20 9 -20 15 -23 23 -15
16 16 28 15 28 -1 0 -15 -29 -19 -45 -6 -6 4 -17 4 -25 -1 -10 -6 -21 -4 -32
7 -11 10 -18 12 -18 5 0 -7 5 -12 12 -12 6 0 8 -3 5 -6 -3 -4 -30 -8 -59 -11
-29 -2 -73 -6 -98 -9 -25 -2 -74 -6 -110 -8 -36 -2 -73 -6 -82 -11 -11 -4 -18
-3 -18 3 0 16 -31 23 -47 10 -19 -16 -53 -21 -53 -8 0 7 -8 6 -22 -1 -24 -13
-26 -13 -46 8 -16 16 -32 17 -32 2 0 -5 4 -8 9 -4 5 3 12 2 15 -3 3 -5 0 -9
-7 -10 -73 -8 -97 -8 -97 0 0 5 -6 6 -12 1 -18 -10 -108 -12 -114 -1 -3 4 -11
5 -17 1 -22 -14 -111 -9 -125 7 -12 13 -13 13 -9 -1 3 -9 -1 -16 -9 -16 -8 0
-14 6 -14 14 0 7 -5 13 -11 13 -6 0 -9 -6 -6 -13 4 -10 -8 -13 -49 -13 -49 0
-54 2 -49 21 5 15 2 14 -9 -5 -9 -14 -15 -19 -16 -12 0 7 -4 10 -10 7 -5 -3
-10 -1 -10 4 0 6 -7 11 -15 11 -8 0 -15 -4 -15 -8 0 -11 -82 -9 -99 2 -9 6
-12 5 -7 -2 4 -7 -5 -10 -25 -8 -17 1 -34 8 -39 15 -4 8 -10 9 -14 3 -5 -9
-19 -8 -101 3 -44 6 -59 10 -72 18 -6 4 -14 1 -16 -5 -4 -10 -8 -10 -15 1 -6
8 -19 12 -31 8 -11 -2 -28 1 -38 8 -12 9 -23 10 -35 4 -12 -6 -18 -6 -18 0 0
6 11 13 25 17 14 3 25 10 25 15 0 6 -8 5 -19 -1 -13 -7 -22 -7 -26 0 -11 18
-23 11 -18 -10 4 -16 2 -19 -11 -14 -9 3 -13 11 -9 18 4 6 0 5 -9 -2 -13 -11
-23 -10 -55 4 -21 9 -54 18 -73 19 -46 4 -48 5 -25 15 14 7 8 8 -23 5 -36 -3
-43 -1 -38 12 4 11 2 13 -9 9 -8 -3 -15 -1 -15 5 0 6 9 13 20 16 11 3 17 10
14 15 -3 5 -17 2 -31 -7 -14 -10 -22 -12 -19 -6 4 6 0 11 -8 11 -20 0 -21 -19
-1 -26 8 -4 15 -10 15 -16 0 -5 -15 1 -33 14 -17 13 -41 24 -52 24 -32 2 -65
15 -65 26 0 5 -6 6 -12 2 -7 -4 -10 -3 -5 1 4 5 0 17 -9 27 -16 17 -18 17 -30
0 -12 -15 -13 -13 -8 13 3 20 2 26 -5 16 -5 -8 -16 -11 -26 -8 -10 4 -14 3 -9
-4 3 -6 -5 -3 -20 6 -25 17 -38 34 -14 19 7 -5 8 -3 4 5 -5 7 -15 10 -23 7 -9
-4 -17 1 -20 15 -3 12 -11 18 -19 15 -8 -3 -13 -2 -13 2 4 26 -5 41 -30 52
-22 9 -28 16 -24 33 6 22 5 22 -17 -1 l-23 -24 -23 26 c-32 34 -30 45 3 15 14
-13 23 -18 19 -11 -4 7 -2 12 6 12 7 1 0 8 -17 17 -16 10 -33 16 -36 15 -4 -1
-5 7 -2 17 3 10 0 22 -6 25 -7 5 -11 -2 -12 -16 l0 -23 -9 23 c-11 26 -22 30
-14 5 5 -16 4 -16 -8 -3 -8 8 -20 21 -28 29 -13 11 -12 12 8 2 19 -10 22 -9
22 6 0 15 2 16 10 3 5 -8 13 -11 17 -6 4 5 2 11 -5 13 -10 4 -10 8 -1 19 9 11
9 18 1 26 -9 9 -12 9 -13 0 -1 -7 -2 -16 -3 -21 0 -6 -7 -16 -15 -23 -11 -11
-12 -8 -6 19 8 37 4 39 -30 17 -23 -15 -24 -15 -31 10 -3 14 -10 24 -14 21 -5
-3 -5 9 1 27 5 18 9 33 9 33 0 0 -11 1 -24 1 -17 1 -23 -2 -19 -12 3 -8 8 -12
12 -9 4 2 8 -3 8 -12 0 -11 -8 -7 -24 13 -22 28 -32 61 -14 50 15 -10 6 33
-12 54 -9 11 -17 25 -17 31 0 6 -7 9 -14 6 -10 -4 -13 -1 -9 8 3 8 8 13 12 11
3 -2 12 3 20 12 13 13 12 14 -10 9 -18 -4 -30 0 -48 18 -12 14 -27 22 -32 19
-5 -3 -9 2 -9 10 0 9 7 13 20 11 11 -2 22 0 25 5 3 5 -3 7 -13 5 -15 -2 -18 4
-19 36 0 21 3 36 8 33 5 -3 9 1 10 8 0 7 5 4 10 -7 9 -20 9 -20 6 0 -3 22 -26
27 -45 8 -8 -8 -9 -19 -2 -37 5 -14 6 -28 1 -30 -11 -7 -28 34 -26 61 1 12 -3
19 -8 16 -6 -4 -8 5 -5 20 3 15 2 24 -2 22 -9 -5 -20 29 -20 63 0 12 5 22 11
22 6 0 3 7 -6 16 -10 11 -14 25 -11 40 3 12 2 26 -4 29 -14 8 -13 125 1 125 5
0 7 -5 3 -12 -4 -7 -3 -8 4 -4 15 9 15 12 -3 30 -19 19 -9 46 17 46 16 0 19 4
13 23 -3 12 -7 28 -7 34 -1 10 -5 10 -15 1 -7 -6 -11 -19 -8 -29 4 -11 2 -19
-4 -19 -15 0 -11 79 5 112 9 17 10 29 4 33 -6 3 -10 11 -10 18 0 8 3 8 12 -1
15 -15 28 -15 28 -1 0 5 -4 8 -9 5 -5 -3 -12 1 -15 10 -3 8 -2 13 3 10 5 -3 9
9 10 27 1 28 3 46 10 107 1 13 2 13 11 0 5 -8 12 -12 15 -8 3 3 -2 14 -12 24
-17 17 -17 18 0 11 13 -5 20 0 28 20 5 14 7 28 4 31 -3 4 -8 -4 -12 -16 -3
-12 -10 -22 -15 -22 -6 0 -7 7 -4 16 3 9 6 20 6 25 0 6 5 7 12 3 8 -5 9 -2 5
11 -6 14 -3 17 18 13 20 -4 23 -3 14 8 -6 8 -16 11 -22 7 -16 -10 1 60 18 73
8 6 12 14 9 17 -3 3 -3 15 1 27 6 18 9 19 18 7 10 -12 16 -12 37 -1 19 11 21
14 7 14 -10 0 -15 5 -12 10 3 6 2 10 -4 10 -5 0 -12 -8 -14 -17 -3 -10 -4 -6
-4 10 1 15 4 27 7 27 3 0 5 13 6 29 1 15 9 39 19 52 10 14 15 17 12 7 -4 -10
-2 -20 3 -23 6 -4 10 1 10 9 0 9 5 17 10 17 6 1 15 3 20 4 6 1 15 3 20 4 6 0
10 9 9 19 0 10 -3 12 -6 5 -8 -20 -22 -15 -18 6 2 14 -1 18 -10 15 -19 -8 -12
29 12 65 10 14 16 31 14 36 -1 6 1 7 5 2 4 -4 9 -18 10 -30 2 -12 0 -16 -2 -9
-3 6 -10 9 -15 6 -6 -3 -2 -12 8 -20 17 -14 16 -15 -7 -10 -14 3 -19 3 -12 0
6 -3 9 -11 6 -16 -5 -7 -2 -8 6 -3 7 4 16 2 21 -6 5 -9 7 11 6 49 -2 34 1 62
5 62 4 0 8 -5 8 -11 0 -8 6 -7 17 2 9 8 18 12 20 11 3 -2 8 0 11 4 4 4 -6 4
-21 0 -21 -5 -27 -4 -21 5 5 9 2 10 -9 6 -14 -5 -15 -3 -5 13 7 10 15 17 19
14 4 -2 9 -1 12 3 2 5 2 3 1 -4 -2 -7 1 -15 6 -18 6 -4 10 6 10 20 0 14 4 24
9 21 5 -3 11 1 15 9 3 8 0 17 -6 21 -7 4 -8 3 -4 -4 4 -7 3 -12 -2 -12 -6 0
-12 7 -16 15 -3 8 0 15 6 15 6 0 8 3 5 7 -11 11 13 31 31 26 14 -3 21 5 30 34
10 34 10 36 -3 19 -8 -11 -15 -23 -15 -28 0 -4 -4 -8 -10 -8 -18 0 -11 20 17
48 15 15 28 32 29 37 0 6 2 16 2 23 1 7 7 10 12 7 6 -3 10 1 10 9 0 10 9 16
23 17 16 1 18 2 5 6 -17 4 -17 7 -2 35 12 24 18 28 25 17 13 -21 11 -29 -6
-23 -8 4 -15 2 -15 -4 0 -12 28 -24 33 -14 2 4 7 21 11 37 5 21 4 26 -3 15 -8
-12 -10 -10 -8 7 1 16 4 19 14 12 20 -18 38 -6 20 13 -15 15 -14 18 8 42 14
15 25 29 25 31 0 3 0 9 0 15 0 15 52 63 59 53 3 -4 15 -9 26 -11 16 -2 17 -1
5 7 -14 10 -7 16 14 12 5 -1 3 5 -4 14 -10 12 -15 13 -21 3 -4 -7 -11 -10 -14
-6 -8 7 16 48 28 48 4 0 6 -4 3 -8 -2 -4 4 -9 15 -9 10 -1 19 2 19 8 0 5 6 9
14 9 24 0 48 30 36 44 -5 7 -7 16 -3 19 3 4 0 7 -8 7 -11 0 -11 2 1 10 13 9
13 10 0 10 -11 0 -10 4 4 12 15 8 22 7 31 -6 11 -15 13 -15 18 4 3 11 1 18 -4
14 -5 -3 -9 0 -9 6 0 7 -7 10 -15 6 -22 -8 -18 4 8 28 13 12 30 20 37 18 17
-6 30 18 24 43 -3 14 4 29 21 45 17 16 25 20 23 10 -2 -10 3 -14 16 -12 12 2
16 -1 10 -10 -4 -7 -3 -10 1 -5 5 4 8 27 8 52 -1 42 11 57 31 38 10 -10 46
-11 46 -1 0 4 -5 8 -10 8 -7 0 -7 6 0 20 6 11 7 20 3 20 -4 0 0 5 10 11 13 8
15 14 7 23 -7 10 -6 17 7 27 16 12 17 12 5 -2 -11 -14 -9 -16 13 -16 25 0 37
17 13 17 -7 0 -5 5 5 11 9 5 22 7 29 3 7 -4 8 -3 4 4 -4 7 -18 10 -34 6 -16
-4 -23 -3 -19 2 5 5 13 10 18 10 5 1 14 2 20 3 5 0 8 5 4 11 -3 5 3 18 14 29
11 11 16 23 13 27 -4 5 1 2 12 -6 18 -14 18 -15 0 -20 -29 -8 -27 -40 1 -38
13 1 21 7 18 12 -4 5 2 7 13 3 18 -7 18 -6 1 7 -17 13 -17 15 2 28 12 8 18 18
14 21 -6 6 11 11 30 8 4 0 7 4 7 10 0 8 6 7 17 -2 11 -10 14 -10 9 -1 -4 7 -2
12 4 12 6 0 8 5 4 11 -4 8 -9 7 -15 -2 -5 -8 -9 -12 -10 -9 0 3 -2 14 -4 25
-3 11 3 25 11 32 9 6 14 15 13 20 -2 4 -17 -5 -33 -20 -17 -16 -24 -27 -17
-25 24 6 20 -29 -5 -41 -13 -6 -24 -15 -24 -21 0 -5 -7 -10 -15 -10 -8 0 -15
7 -15 16 0 8 4 13 10 9 10 -6 50 15 50 28 0 4 -10 2 -22 -4 -22 -12 -22 -11
-8 7 32 42 90 97 90 86 0 -7 7 -12 16 -12 11 0 14 5 10 16 -3 9 -6 18 -6 20 0
3 -5 2 -12 -2 -7 -4 -8 -3 -4 4 4 6 13 9 21 6 8 -4 13 -10 10 -14 -3 -5 -1
-11 5 -15 5 -3 10 0 10 7 0 9 3 9 10 -2 8 -13 10 -13 10 1 0 19 -24 42 -33 32
-4 -3 -7 -2 -7 4 0 16 25 34 41 30 8 -2 11 -2 7 0 -11 7 14 53 29 53 8 0 12 4
8 9 -3 5 -1 12 4 15 5 4 12 -3 16 -14 4 -11 11 -18 16 -14 6 4 6 11 -2 20 -8
10 -8 14 0 14 6 0 11 8 11 18 0 10 6 27 14 37 12 16 16 17 29 6 14 -11 18 -7
33 26 9 21 16 41 16 46 -1 4 3 7 8 7 6 0 10 -4 10 -9 0 -5 10 -7 21 -4 20 6
20 7 -7 19 -16 7 -27 13 -24 14 3 1 13 3 24 5 31 6 37 20 33 71 -2 27 -4 39
-5 28z m-6 -81 c-10 -10 -19 5 -10 18 6 11 8 11 12 0 2 -7 1 -15 -2 -18z m-92
-28 c-4 -8 -11 -15 -16 -15 -6 0 -5 6 2 15 7 8 14 15 16 15 2 0 1 -7 -2 -15z
m9 -61 c-7 -3 -9 -13 -6 -22 5 -13 3 -14 -7 -5 -14 13 -5 33 13 32 9 0 9 -2 0
-5z m-378 -245 c11 -17 -1 -21 -15 -4 -8 9 -8 15 -2 15 6 0 14 -5 17 -11z
m-232 -234 c4 -8 2 -17 -2 -20 -5 -2 -11 4 -14 15 -6 23 8 27 16 5z m119 -82
c-6 -3 -9 -10 -6 -15 4 -7 2 -8 -5 -4 -9 6 -9 11 0 22 6 8 15 12 18 8 3 -4 0
-9 -7 -11z m-376 -168 c-9 -9 -16 -13 -16 -8 0 12 22 34 28 28 2 -2 -3 -11
-12 -20z m-20 -50 c-1 -8 -11 -23 -22 -34 -20 -18 -21 -18 -34 3 -11 18 -11
19 1 9 15 -13 43 -2 45 17 2 16 4 20 8 20 2 0 3 -7 2 -15z m-56 -59 c0 -6 -4
-5 -9 3 -5 8 -16 11 -26 7 -15 -5 -16 -4 -5 9 10 12 16 13 26 4 8 -6 14 -17
14 -23z m-17 -10 c3 -8 -2 -20 -11 -27 -14 -11 -15 -11 -5 0 6 7 9 20 6 27 -3
8 -3 14 0 14 3 0 7 -6 10 -14z m245 -39 c17 -13 -4 -38 -25 -30 -8 3 -19 0
-23 -7 -5 -9 -9 -9 -14 -1 -4 6 -1 14 8 17 8 3 13 11 10 18 -6 15 26 17 44 3z
m-398 -147 c0 -5 -4 -10 -10 -10 -5 0 -10 5 -10 10 0 6 5 10 10 10 6 0 10 -4
10 -10z m-172 -170 c10 -16 10 -20 -2 -20 -7 0 -16 9 -19 20 -3 11 -2 20 2 20
3 0 12 -9 19 -20z m49 -506 c-9 -9 -28 6 -21 18 4 6 10 6 17 -1 6 -6 8 -13 4
-17z m-187 -719 c0 -5 -5 -3 -10 5 -5 8 -10 20 -10 25 0 6 5 3 10 -5 5 -8 10
-19 10 -25z m-633 -250 c0 -8 -6 -15 -12 -15 -8 0 -11 -17 -11 -49 2 -45 0
-48 -16 -40 -10 5 -18 14 -18 20 0 6 4 8 10 4 5 -3 8 10 6 32 -2 26 2 42 13
50 21 16 28 16 28 -2z m711 -308 c14 -16 19 -35 10 -36 -5 -1 -7 1 -5 3 1 2
-7 13 -17 25 -11 12 -14 21 -9 21 6 0 15 -6 21 -13z m6092 -67 c0 -5 -2 -10
-4 -10 -3 0 -8 5 -11 10 -3 6 -1 10 4 10 6 0 11 -4 11 -10z m-6038 -17 c20
-18 24 -48 8 -58 -6 -4 -10 6 -10 24 0 19 -5 29 -12 27 -7 -1 -9 -1 -4 2 4 2
2 8 -5 13 -8 5 -10 9 -5 9 5 0 18 -7 28 -17z m143 -195 c-3 -8 -12 -15 -20
-15 -13 0 -12 4 2 19 18 20 26 19 18 -4z m5096 -8 c-13 -11 -35 -20 -50 -20
-23 1 -24 2 -8 11 10 6 21 8 24 5 3 -3 15 1 27 9 30 22 35 18 7 -5z m-4906
-188 c10 -7 19 -32 12 -32 -2 0 -12 9 -22 20 -17 19 -11 28 10 12z m4756 -55
c-6 -8 -8 -17 -4 -21 4 -4 0 -4 -8 -1 -22 8 -19 35 4 35 15 0 17 -3 8 -13z
m-1231 -69 c0 -5 -9 -7 -19 -3 -11 3 -22 1 -26 -5 -4 -6 -16 -8 -27 -4 -14 4
-18 2 -14 -5 4 -7 -1 -11 -13 -11 -29 0 -26 17 4 27 34 11 95 12 95 1z m-4443
-108 c-1 -11 -2 -20 -4 -20 -1 0 -7 9 -13 20 -8 16 -8 20 4 20 9 0 14 -8 13
-20z m4566 -137 c-7 -2 -11 -10 -9 -16 1 -7 1 -9 -1 -4 -3 4 -9 5 -13 2 -5 -3
-12 0 -16 6 -4 7 -3 9 3 6 6 -4 16 0 23 8 7 9 16 13 19 9 3 -4 1 -9 -6 -11z
m-573 -144 c0 -6 -7 -9 -15 -5 -17 6 -20 -4 -5 -22 5 -7 3 -6 -6 2 -9 8 -13
19 -10 25 9 14 36 14 36 0z"/>
<path d="M1977 4499 c7 -7 15 -10 18 -7 3 3 -2 9 -12 12 -14 6 -15 5 -6 -5z"/>
<path d="M2578 5408 c-9 -5 -6 -8 9 -8 12 0 24 4 27 8 7 11 -19 11 -36 0z"/>
<path d="M2474 5324 c-18 -15 -18 -15 3 -11 12 3 22 2 21 -2 -2 -18 4 -22 17
-11 8 7 15 17 15 23 0 6 -3 7 -7 4 -3 -4 -11 -2 -18 3 -8 6 -18 5 -31 -6z"/>
<path d="M2420 5280 c-12 -8 -9 -10 12 -10 15 0 30 5 33 10 8 13 -25 13 -45 0z"/>
<path d="M2336 5245 c-3 -9 0 -15 9 -15 9 0 12 6 9 15 -4 8 -7 15 -9 15 -2 0
-5 -7 -9 -15z"/>
<path d="M2540 5200 c0 -5 5 -10 11 -10 5 0 7 5 4 10 -3 6 -8 10 -11 10 -2 0
-4 -4 -4 -10z"/>
<path d="M2550 5120 c-8 -5 -10 -10 -5 -10 6 0 17 5 25 10 8 5 11 10 5 10 -5
0 -17 -5 -25 -10z"/>
<path d="M2204 5080 c-12 -5 -25 -14 -30 -21 -4 -7 -3 -10 3 -6 6 4 13 0 16
-7 3 -8 1 -17 -6 -20 -9 -3 -8 -5 1 -5 19 -1 83 49 76 60 -6 11 -32 11 -60 -1z
m44 -14 c-2 -1 -11 -8 -20 -15 -16 -12 -18 -11 -18 3 0 10 5 14 10 11 6 -3 10
-1 10 5 0 6 5 8 11 5 6 -4 9 -8 7 -9z"/>
<path d="M2470 5080 c0 -5 5 -10 11 -10 5 0 7 5 4 10 -3 6 -8 10 -11 10 -2 0
-4 -4 -4 -10z"/>
<path d="M3650 4980 c0 -5 5 -10 11 -10 5 0 7 5 4 10 -3 6 -8 10 -11 10 -2 0
-4 -4 -4 -10z"/>
<path d="M2093 4965 c0 -8 4 -15 9 -15 4 0 8 7 8 15 0 8 -4 15 -8 15 -5 0 -9
-7 -9 -15z"/>
<path d="M1940 4806 c0 -9 5 -16 10 -16 6 0 10 4 10 9 0 6 -4 13 -10 16 -5 3
-10 -1 -10 -9z"/>
<path d="M1865 4759 c-19 -7 -19 -8 3 -8 13 -1 20 -5 17 -11 -3 -5 1 -10 9
-10 8 0 18 5 21 10 3 6 0 10 -9 10 -8 0 -16 4 -18 9 -1 4 -12 5 -23 0z"/>
<path d="M1878 4713 c7 -3 16 -2 19 1 4 3 -2 6 -13 5 -11 0 -14 -3 -6 -6z"/>
<path d="M2076 4562 c-3 -6 -1 -14 5 -17 14 -9 20 -2 10 14 -6 8 -11 9 -15 3z"/>
<path d="M1840 4330 c0 -7 -9 -24 -21 -36 -12 -13 -16 -24 -10 -28 5 -4 13 3
16 15 6 17 9 19 17 8 8 -11 9 -10 5 3 -3 9 -1 19 6 21 9 3 9 8 0 18 -11 11
-13 11 -13 -1z"/>
<path d="M1840 4261 c0 -6 4 -13 10 -16 6 -3 7 1 4 9 -7 18 -14 21 -14 7z"/>
<path d="M1301 4044 c0 -11 3 -14 6 -6 3 7 2 16 -1 19 -3 4 -6 -2 -5 -13z"/>
<path d="M1667 4021 c-3 -11 1 -22 8 -24 8 -4 10 3 7 19 -5 29 -8 30 -15 5z"/>
<path d="M2412 2958 c0 -946 1 -1028 17 -1029 9 -1 26 0 39 1 12 1 22 -4 22
-10 0 -6 4 -9 8 -6 5 3 37 -1 73 -9 94 -19 92 -19 107 -32 7 -7 22 -13 33 -13
11 0 18 -3 16 -8 -3 -4 17 -8 45 -10 32 -2 48 1 44 7 -4 6 -13 8 -21 4 -19 -7
-105 18 -105 30 0 5 8 6 18 2 9 -4 42 -8 72 -10 57 -3 108 -13 125 -24 9 -6
50 -6 195 -1 25 1 86 -1 136 -4 68 -4 91 -3 92 7 1 6 3 24 6 39 2 16 0 31 -5
34 -6 4 -6 11 1 19 8 10 8 19 1 33 -6 11 -8 22 -5 25 9 8 11 128 3 133 -4 2
-3 19 2 37 5 18 5 33 0 35 -5 2 -5 19 0 39 4 21 4 44 -1 54 -5 9 -7 19 -4 22
9 8 11 128 3 133 -4 2 -4 17 0 32 5 15 5 36 1 47 -4 11 -4 30 1 43 5 12 4 33
-1 46 -5 13 -6 27 -3 30 3 3 5 34 4 68 -1 35 -2 68 -2 73 0 6 0 37 0 70 1 33
1 67 0 75 0 8 0 29 0 45 1 17 1 39 1 50 0 11 -1 67 -1 125 0 58 0 110 0 115 0
87 1 144 2 160 1 25 1 45 0 70 -1 19 -2 132 -1 165 0 8 0 44 0 80 0 36 0 72 0
80 0 8 1 30 1 48 1 20 6 32 14 32 8 0 16 4 19 9 4 5 -4 7 -16 4 l-23 -5 22 20
c26 23 21 32 -18 32 -15 0 -30 6 -32 13 -4 10 -6 10 -6 0 -1 -17 -791 -19
-808 -2 -7 7 -15 5 -27 -6 -14 -15 -20 -13 -18 6 1 3 -5 6 -13 6 -11 0 -13
-171 -13 -1029z"/>
<path d="M1600 3891 c0 -6 4 -13 10 -16 6 -3 7 1 4 9 -7 18 -14 21 -14 7z"/>
<path d="M1070 3722 c0 -5 7 -9 15 -9 8 0 12 4 9 9 -3 4 -9 8 -15 8 -5 0 -9
-4 -9 -8z"/>
<path d="M1020 3651 c0 -6 4 -13 10 -16 6 -3 7 1 4 9 -7 18 -14 21 -14 7z"/>
<path d="M1428 3630 c-7 -22 3 -51 16 -47 6 2 12 13 12 25 1 12 -2 19 -7 17
-4 -3 -9 1 -11 7 -3 9 -6 9 -10 -2z"/>
<path d="M1000 3620 c-8 -5 -11 -10 -6 -10 5 0 3 -7 -4 -15 -9 -11 -10 -19 -3
-26 8 -8 13 -7 18 2 5 8 4 10 -3 5 -7 -4 -12 -2 -12 3 0 6 6 11 14 11 9 0 14
9 13 20 -1 11 -1 20 -2 20 0 0 -7 -5 -15 -10z"/>
<path d="M3650 3549 c0 -5 5 -7 10 -4 6 3 10 8 10 11 0 2 -4 4 -10 4 -5 0 -10
-5 -10 -11z"/>
<path d="M1363 3455 c0 -8 4 -15 9 -15 4 0 8 4 8 9 0 6 -4 12 -8 15 -5 3 -9
-1 -9 -9z"/>
<path d="M3650 3389 c0 -5 5 -7 10 -4 6 3 10 8 10 11 0 2 -4 4 -10 4 -5 0 -10
-5 -10 -11z"/>
<path d="M1354 3344 c0 -19 1 -34 2 -34 1 0 7 13 12 29 8 22 7 31 -2 34 -8 3
-12 -6 -12 -29z"/>
<path d="M840 3345 c-12 -15 -6 -35 11 -35 6 0 8 4 4 9 -3 5 -1 12 5 16 12 8
13 25 1 25 -5 0 -14 -7 -21 -15z"/>
<path d="M1348 3273 c7 -3 16 -2 19 1 4 3 -2 6 -13 5 -11 0 -14 -3 -6 -6z"/>
<path d="M747 3125 c3 -8 9 -12 14 -9 12 7 11 11 -5 17 -10 4 -13 1 -9 -8z"/>
<path d="M1280 3080 c0 -5 5 -10 10 -10 6 0 10 5 10 10 0 6 -4 10 -10 10 -5 0
-10 -4 -10 -10z"/>
<path d="M1275 3040 c-3 -5 -1 -10 4 -10 6 0 11 5 11 10 0 6 -2 10 -4 10 -3 0
-8 -4 -11 -10z"/>
<path d="M660 3021 c0 -6 4 -13 10 -16 6 -3 7 1 4 9 -7 18 -14 21 -14 7z"/>
<path d="M696 3001 c-4 -6 -2 -11 5 -11 8 0 8 -4 -1 -15 -9 -11 -10 -19 -3
-26 7 -7 12 -2 15 15 6 29 -6 55 -16 37z"/>
<path d="M1260 2803 c0 -13 4 -23 9 -23 11 0 24 31 16 38 -3 3 -5 -1 -5 -9 0
-11 -2 -11 -10 1 -8 12 -10 11 -10 -7z"/>
<path d="M1286 2754 c-4 -9 -4 -19 -1 -22 2 -3 7 3 11 12 4 9 4 19 1 22 -2 3
-7 -3 -11 -12z"/>
<path d="M1275 2710 c4 -6 11 -8 16 -5 14 9 11 15 -7 15 -8 0 -12 -5 -9 -10z"/>
<path d="M8215 2630 c-3 -6 1 -7 9 -4 18 7 21 14 7 14 -6 0 -13 -4 -16 -10z"/>
<path d="M8520 2630 c0 -5 -7 -7 -15 -3 -10 3 -15 0 -13 -8 2 -9 -6 -13 -23
-12 -20 1 -30 -5 -39 -25 -9 -22 -9 -25 1 -14 15 14 33 16 24 2 -3 -5 -1 -10
5 -10 7 0 10 7 7 15 -4 10 3 16 26 20 23 5 33 12 34 26 1 10 0 19 -3 19 -2 0
-4 -4 -4 -10z"/>
<path d="M8210 2590 c0 -5 7 -10 16 -10 8 0 12 5 9 10 -3 6 -10 10 -16 10 -5
0 -9 -4 -9 -10z"/>
<path d="M8060 2548 c0 -10 9 -9 35 2 17 8 16 8 -7 7 -16 -1 -28 -5 -28 -9z"/>
<path d="M588 2543 c7 -3 16 -2 19 1 4 3 -2 6 -13 5 -11 0 -14 -3 -6 -6z"/>
<path d="M7684 2460 c0 -11 1 -20 3 -20 1 0 7 9 13 20 8 15 8 20 -3 20 -7 0
-13 -9 -13 -20z"/>
<path d="M7565 2390 c3 -5 8 -10 11 -10 2 0 4 5 4 10 0 6 -5 10 -11 10 -5 0
-7 -4 -4 -10z"/>
<path d="M585 2380 c4 -6 11 -8 16 -5 14 9 11 15 -7 15 -8 0 -12 -5 -9 -10z"/>
<path d="M7813 2350 c-34 -14 -28 -21 7 -9 17 6 30 13 30 15 0 6 -12 4 -37 -6z"/>
<path d="M593 2335 c0 -8 4 -15 9 -15 4 0 8 7 8 15 0 8 -4 15 -8 15 -5 0 -9
-7 -9 -15z"/>
<path d="M7252 2313 c-6 -2 -9 -10 -5 -16 4 -7 0 -8 -13 -3 -16 6 -17 5 -6 -6
11 -11 16 -10 26 4 7 10 16 15 19 11 4 -3 7 -1 7 5 0 13 -7 14 -28 5z"/>
<path d="M7130 2300 c-12 -8 -10 -10 8 -10 13 0 20 4 17 10 -7 12 -6 12 -25 0z"/>
<path d="M7724 2276 c-4 -10 -16 -22 -28 -26 -15 -6 -16 -9 -5 -9 18 -1 55 36
46 45 -4 4 -10 -1 -13 -10z"/>
<path d="M7596 2257 c3 -10 9 -15 12 -12 3 3 0 11 -7 18 -10 9 -11 8 -5 -6z"/>
<path d="M6970 2219 c0 -5 5 -7 10 -4 6 3 10 8 10 11 0 2 -4 4 -10 4 -5 0 -10
-5 -10 -11z"/>
<path d="M6898 2213 c7 -3 16 -2 19 1 4 3 -2 6 -13 5 -11 0 -14 -3 -6 -6z"/>
<path d="M1515 2201 c-3 -5 -1 -12 4 -16 6 -3 8 -13 5 -23 -5 -14 -4 -14 4 -2
7 9 7 18 1 26 -7 8 -6 14 3 17 9 4 9 6 1 6 -6 1 -14 -3 -18 -8z"/>
<path d="M6860 2199 c0 -5 5 -7 10 -4 6 3 10 8 10 11 0 2 -4 4 -10 4 -5 0 -10
-5 -10 -11z"/>
<path d="M7440 2199 c0 -6 -9 -8 -20 -4 -15 5 -20 2 -20 -12 0 -14 -2 -15 -9
-4 -6 9 -11 10 -15 2 -4 -6 -4 -11 1 -12 4 0 16 -2 26 -4 9 -2 15 1 11 6 -3 5
6 9 19 9 14 0 24 6 24 15 0 8 -4 15 -9 15 -4 0 -8 -5 -8 -11z"/>
<path d="M7475 2170 c3 -5 8 -10 11 -10 2 0 4 5 4 10 0 6 -5 10 -11 10 -5 0
-7 -4 -4 -10z"/>
<path d="M5640 2120 c0 -5 5 -10 10 -10 6 0 10 5 10 10 0 6 -4 10 -10 10 -5 0
-10 -4 -10 -10z"/>
<path d="M6541 2114 c0 -11 3 -14 6 -6 3 7 2 16 -1 19 -3 4 -6 -2 -5 -13z"/>
<path d="M5565 2110 c-3 -6 1 -7 10 -4 11 5 14 2 9 -10 -5 -12 -2 -15 9 -10 9
3 13 12 10 20 -6 16 -29 19 -38 4z"/>
<path d="M5635 2090 c-3 -6 1 -7 9 -4 18 7 21 14 7 14 -6 0 -13 -4 -16 -10z"/>
<path d="M1660 2070 c-13 -8 -12 -12 4 -27 10 -10 16 -12 12 -5 -4 6 -3 12 3
12 5 0 12 -6 14 -12 3 -8 6 -6 6 5 1 10 -6 17 -16 17 -15 0 -16 2 -3 10 8 5
11 10 5 10 -5 0 -17 -5 -25 -10z"/>
<path d="M6370 2065 c-8 -9 -17 -12 -24 -6 -12 9 -50 11 -40 2 3 -3 9 -6 12
-6 4 0 13 -4 20 -9 8 -4 23 -1 38 9 13 9 29 13 34 10 5 -3 11 -2 14 3 9 15
-42 12 -54 -3z"/>
<path d="M7066 2062 c-4 -7 -5 -16 -2 -21 4 -5 1 -11 -5 -13 -7 -2 -5 -9 5
-17 14 -12 16 -12 10 3 -4 10 0 18 10 22 9 3 16 10 16 16 0 5 -4 7 -9 4 -5 -4
-11 -1 -13 6 -3 9 -6 9 -12 0z"/>
<path d="M6231 2044 c0 -11 3 -14 6 -6 3 7 2 16 -1 19 -3 4 -6 -2 -5 -13z"/>
<path d="M6250 2049 c0 -5 5 -7 10 -4 6 3 10 8 10 11 0 2 -4 4 -10 4 -5 0 -10
-5 -10 -11z"/>
<path d="M1753 1993 c-7 -2 -13 -12 -13 -21 1 -15 2 -15 11 1 6 9 14 15 20 12
5 -4 9 -1 9 4 0 12 -7 13 -27 4z"/>
<path d="M6030 1989 c0 -5 5 -7 10 -4 6 3 10 8 10 11 0 2 -4 4 -10 4 -5 0 -10
-5 -10 -11z"/>
<path d="M5090 1969 c0 -5 5 -7 10 -4 6 3 10 8 10 11 0 2 -4 4 -10 4 -5 0 -10
-5 -10 -11z"/>
<path d="M4618 1963 c7 -3 16 -2 19 1 4 3 -2 6 -13 5 -11 0 -14 -3 -6 -6z"/>
<path d="M6730 1948 c0 -4 4 -8 9 -8 6 0 12 4 15 8 3 5 -1 9 -9 9 -8 0 -15 -4
-15 -9z"/>
<path d="M6775 1951 c3 -6 -3 -15 -12 -21 -17 -11 -17 -11 0 -6 10 3 21 6 23
6 2 0 4 7 4 15 0 8 -5 15 -11 15 -5 0 -8 -4 -4 -9z"/>
<path d="M4605 1940 c3 -5 12 -7 20 -3 21 7 19 13 -6 13 -11 0 -18 -4 -14 -10z"/>
<path d="M4941 1942 c-6 -2 -11 -8 -11 -13 0 -6 6 -7 13 -2 6 4 18 8 25 9 8 2
16 5 19 8 6 5 -27 4 -46 -2z"/>
<path d="M5830 1940 c0 -5 5 -10 11 -10 5 0 7 5 4 10 -3 6 -8 10 -11 10 -2 0
-4 -4 -4 -10z"/>
<path d="M1826 1905 c-3 -8 0 -17 6 -21 6 -4 8 -3 4 4 -3 6 2 12 11 14 16 3
17 4 1 10 -10 4 -18 1 -22 -7z"/>
<path d="M3608 1913 c7 -3 16 -2 19 1 4 3 -2 6 -13 5 -11 0 -14 -3 -6 -6z"/>
<path d="M5580 1909 c0 -5 5 -7 10 -4 6 3 10 8 10 11 0 2 -4 4 -10 4 -5 0 -10
-5 -10 -11z"/>
<path d="M3637 1896 c-6 -14 21 -32 31 -21 3 3 0 5 -7 5 -8 0 -11 7 -7 15 3 8
1 15 -3 15 -5 0 -11 -6 -14 -14z"/>
<path d="M4428 1878 c5 -5 16 -8 23 -6 8 3 3 7 -10 11 -17 4 -21 3 -13 -5z"/>
<path d="M4369 1868 c-11 -8 -11 -9 3 -5 9 3 18 1 21 -6 2 -8 5 -8 10 0 9 15
-17 23 -34 11z"/>
<path d="M717 1859 c-9 -5 -21 -8 -26 -4 -5 3 -12 2 -15 -3 -3 -5 8 -8 24 -8
16 0 32 6 34 13 6 15 6 15 -17 2z"/>
<path d="M2654 1862 c3 -6 0 -12 -6 -15 -7 -2 -1 -4 14 -3 34 1 34 2 7 17 -13
6 -19 7 -15 1z"/>
<path d="M3343 1856 c0 -8 6 -12 14 -9 7 3 13 9 13 14 0 5 -6 9 -13 9 -8 0
-14 -6 -14 -14z"/>
<path d="M4255 1860 c-3 -5 -13 -6 -23 -3 -9 3 -14 3 -10 -2 4 -4 24 -9 43
-10 29 -2 34 0 24 11 -13 16 -25 18 -34 4z"/>
<path d="M6575 1859 c-4 -6 -4 -13 -1 -16 3 -4 6 -1 6 6 0 8 8 11 20 8 11 -3
23 -1 26 4 3 5 -6 9 -20 9 -14 0 -28 -5 -31 -11z"/>
<path d="M4435 1850 c-19 -8 -19 -9 3 -9 12 -1 22 4 22 9 0 6 -1 10 -2 9 -2 0
-12 -4 -23 -9z"/>
<path d="M4520 1848 c0 -4 4 -8 9 -8 6 0 12 4 15 8 3 5 -1 9 -9 9 -8 0 -15 -4
-15 -9z"/>
<path d="M2858 1843 c6 -2 18 -2 25 0 6 3 1 5 -13 5 -14 0 -19 -2 -12 -5z"/>
<path d="M4078 1843 c7 -3 16 -2 19 1 4 3 -2 6 -13 5 -11 0 -14 -3 -6 -6z"/>
<path d="M1971 1818 c5 -10 17 -18 25 -18 9 0 12 -5 8 -12 -4 -7 -3 -8 4 -4
16 9 3 36 -14 29 -8 -3 -14 -1 -14 5 0 6 6 12 13 15 6 3 2 4 -10 4 -17 -1 -20
-4 -12 -19z"/>
<path d="M6300 1810 c0 -6 9 -10 21 -10 11 0 27 -7 35 -15 9 -8 20 -15 26 -15
16 0 -43 44 -64 47 -10 2 -18 -2 -18 -7z"/>
<path d="M6203 1783 c-15 -5 -17 -23 -4 -23 5 0 11 7 15 15 3 8 4 15 3 14 -1
0 -8 -3 -14 -6z"/>
<path d="M6230 1777 c0 -7 12 -13 28 -14 15 0 19 1 10 4 -10 2 -18 9 -18 14 0
5 -4 9 -10 9 -5 0 -10 -6 -10 -13z"/>
<path d="M4915 1760 c-18 -8 -17 -9 8 -9 16 -1 26 3 22 9 -3 6 -7 10 -8 9 -1
0 -11 -4 -22 -9z"/>
<path d="M4840 1752 c0 -16 13 -20 35 -11 11 4 15 8 8 8 -6 1 -18 4 -27 7 -9
3 -16 1 -16 -4z"/>
<path d="M750 1740 c0 -5 5 -10 10 -10 6 0 10 5 10 10 0 6 -4 10 -10 10 -5 0
-10 -4 -10 -10z"/>
<path d="M4561 1724 c0 -11 3 -14 6 -6 3 7 2 16 -1 19 -3 4 -6 -2 -5 -13z"/>
<path d="M750 1689 c0 -5 5 -7 10 -4 6 3 10 8 10 11 0 2 -4 4 -10 4 -5 0 -10
-5 -10 -11z"/>
<path d="M2355 1680 c-3 -5 -1 -10 4 -10 6 0 11 5 11 10 0 6 -2 10 -4 10 -3 0
-8 -4 -11 -10z"/>
<path d="M2526 1681 c-4 -5 -2 -12 3 -15 5 -4 12 -2 15 3 4 5 2 12 -3 15 -5 4
-12 2 -15 -3z"/>
<path d="M3965 1680 c-3 -5 -1 -10 4 -10 6 0 11 5 11 10 0 6 -2 10 -4 10 -3 0
-8 -4 -11 -10z"/>
<path d="M4065 1680 c-3 -5 -1 -10 4 -10 6 0 11 5 11 10 0 6 -2 10 -4 10 -3 0
-8 -4 -11 -10z"/>
<path d="M4322 1670 c0 -14 2 -19 5 -12 2 6 2 18 0 25 -3 6 -5 1 -5 -13z"/>
<path d="M2566 1672 c-7 -12 7 -29 32 -36 13 -5 22 -3 22 3 0 6 -4 12 -10 12
-5 1 -14 2 -19 3 -5 0 -13 5 -18 10 -5 5 -3 6 5 2 6 -4 12 -2 12 3 0 13 -17
15 -24 3z"/>
<path d="M4007 1668 c7 -8 10 -18 7 -21 -4 -3 3 -5 14 -4 24 1 20 12 -11 29
-19 10 -20 9 -10 -4z"/>
<path d="M4210 1670 c0 -5 5 -10 10 -10 6 0 10 5 10 10 0 6 -4 10 -10 10 -5 0
-10 -4 -10 -10z"/>
<path d="M2490 1649 c0 -5 10 -9 22 -9 12 0 18 3 14 7 -10 11 -36 12 -36 2z"/>
<path d="M828 1643 c7 -3 16 -2 19 1 4 3 -2 6 -13 5 -11 0 -14 -3 -6 -6z"/>
<path d="M5790 1644 c0 -7 27 -34 34 -34 13 0 5 16 -14 28 -11 7 -20 10 -20 6z"/>
<path d="M5710 1625 c-7 -9 -8 -15 -2 -15 5 0 12 7 16 15 3 8 4 15 2 15 -2 0
-9 -7 -16 -15z"/>
<path d="M2786 1602 c-3 -5 1 -9 9 -9 8 0 15 4 15 9 0 4 -4 8 -9 8 -6 0 -12
-4 -15 -8z"/>
<path d="M2870 1596 c7 -7 13 -7 20 0 6 6 3 10 -10 10 -13 0 -16 -4 -10 -10z"/>
<path d="M3070 1600 c0 -5 5 -10 11 -10 5 0 7 5 4 10 -3 6 -8 10 -11 10 -2 0
-4 -4 -4 -10z"/>
<path d="M3380 1590 c0 -5 7 -7 15 -4 8 4 15 8 15 10 0 2 -7 4 -15 4 -8 0 -15
-4 -15 -10z"/>
<path d="M5446 1551 c-3 -5 1 -11 9 -15 8 -3 15 -1 15 4 0 13 -18 22 -24 11z"/>
<path d="M907 1543 c-4 -3 -7 -11 -7 -17 0 -6 5 -5 12 2 6 6 9 14 7 17 -3 3
-9 2 -12 -2z"/>
<path d="M1087 1465 c-4 -8 -2 -17 3 -20 6 -4 10 3 10 14 0 25 -6 27 -13 6z"/>
<path d="M5030 1459 c0 -5 5 -7 10 -4 6 3 10 8 10 11 0 2 -4 4 -10 4 -5 0 -10
-5 -10 -11z"/>
<path d="M5240 1460 c-13 -8 -12 -10 3 -10 9 0 17 5 17 10 0 12 -1 12 -20 0z"/>
<path d="M5175 1450 c-3 -5 -1 -10 4 -10 6 0 11 5 11 10 0 6 -2 10 -4 10 -3 0
-8 -4 -11 -10z"/>
<path d="M4708 1393 c-10 -2 -18 -8 -18 -13 0 -4 9 -6 20 -3 11 3 20 9 20 14
0 5 -1 8 -2 8 -2 -1 -11 -3 -20 -6z"/>
<path d="M4551 1344 c0 -11 3 -14 6 -6 3 7 2 16 -1 19 -3 4 -6 -2 -5 -13z"/>
<path d="M4465 1340 c3 -5 -1 -11 -7 -14 -7 -2 -2 -3 12 -1 14 2 28 4 33 4 19
2 4 19 -18 19 -13 0 -22 -4 -20 -8z"/>
<path d="M4410 1333 c17 -8 1 -23 -18 -16 -14 6 -15 4 -5 -8 6 -8 24 -15 40
-16 15 0 20 1 10 4 -10 2 -16 12 -15 20 2 9 -3 17 -10 19 -7 1 -8 0 -2 -3z"/>
<path d="M1465 1300 c3 -5 8 -10 11 -10 2 0 4 5 4 10 0 6 -5 10 -11 10 -5 0
-7 -4 -4 -10z"/>
<path d="M4260 1299 c0 -5 5 -7 10 -4 6 3 10 8 10 11 0 2 -4 4 -10 4 -5 0 -10
-5 -10 -11z"/>
<path d="M4470 1300 c0 -5 5 -10 11 -10 5 0 7 5 4 10 -3 6 -8 10 -11 10 -2 0
-4 -4 -4 -10z"/>
<path d="M1650 1224 c0 -8 5 -12 10 -9 6 3 10 10 10 16 0 5 -4 9 -10 9 -5 0
-10 -7 -10 -16z"/>
<path d="M1781 1224 c0 -11 3 -14 6 -6 3 7 2 16 -1 19 -3 4 -6 -2 -5 -13z"/>
<path d="M4035 1220 c3 -5 11 -10 16 -10 6 0 7 5 4 10 -3 6 -11 10 -16 10 -6
0 -7 -4 -4 -10z"/>
<path d="M1878 1213 c7 -3 16 -2 19 1 4 3 -2 6 -13 5 -11 0 -14 -3 -6 -6z"/>
<path d="M2370 1165 c0 -9 6 -12 15 -9 8 4 15 10 15 15 0 5 -7 9 -15 9 -8 0
-15 -7 -15 -15z"/>
<path d="M2402 1150 c-13 -22 -6 -26 18 -10 8 5 11 10 5 10 -5 0 -3 5 5 10 13
9 13 10 0 10 -8 0 -21 -9 -28 -20z"/>
<path d="M3348 1163 c7 -3 16 -2 19 1 4 3 -2 6 -13 5 -11 0 -14 -3 -6 -6z"/>
<path d="M2960 1150 c8 -5 20 -10 25 -10 6 0 3 5 -5 10 -8 5 -19 10 -25 10 -5
0 -3 -5 5 -10z"/>
<path d="M3013 1153 c9 -2 23 -2 30 0 6 3 -1 5 -18 5 -16 0 -22 -2 -12 -5z"/>
<path d="M2185 1140 c3 -5 8 -10 11 -10 2 0 4 5 4 10 0 6 -5 10 -11 10 -5 0
-7 -4 -4 -10z"/>
<path d="M2340 1139 c0 -5 5 -7 10 -4 6 3 10 8 10 11 0 2 -4 4 -10 4 -5 0 -10
-5 -10 -11z"/>
<path d="M2540 1139 c0 -5 5 -7 10 -4 6 3 10 8 10 11 0 2 -4 4 -10 4 -5 0 -10
-5 -10 -11z"/>
<path d="M2820 1140 c0 -5 5 -10 11 -10 5 0 7 5 4 10 -3 6 -8 10 -11 10 -2 0
-4 -4 -4 -10z"/>
<path d="M2860 1140 c0 -6 7 -10 15 -10 8 0 15 2 15 4 0 2 -7 6 -15 10 -8 3
-15 1 -15 -4z"/>
<path d="M3128 1143 c7 -3 16 -2 19 1 4 3 -2 6 -13 5 -11 0 -14 -3 -6 -6z"/>
</g>
</svg>
